<svg xmlns="http://www.w3.org/2000/svg" version="1.1" xmlns:xlink="http://www.w3.org/1999/xlink" viewBox="0 0 200 200" width="200" height="200"><rect width="200" height="200" fill="url('#gradient')"></rect><defs><linearGradient id="gradient" gradientTransform="rotate(45 0.5 0.5)"><stop offset="0%" stop-color="#e5eed7"></stop><stop offset="100%" stop-color="#e5eed7"></stop></linearGradient></defs><g><g fill="#4d9e8d" transform="matrix(2.450143042912874,0,0,2.450143042912874,51.37327897801666,117.41989222872552)" stroke="#806f71" stroke-width="0.2"><path d="M6.69-4.82L4.50-4.82L4.50 0L1.07 0L1.07-14.22L6.75-14.22Q8.38-14.22 9.63-13.62Q10.89-13.02 11.58-11.91Q12.27-10.80 12.27-9.39L12.27-9.39Q12.27-7.31 10.78-6.07Q9.29-4.82 6.69-4.82L6.69-4.82ZM4.50-11.57L4.50-7.47L6.75-7.47Q7.74-7.47 8.27-7.97Q8.79-8.47 8.79-9.38L8.79-9.38Q8.79-10.37 8.25-10.97Q7.71-11.56 6.79-11.57L6.79-11.57L4.50-11.57ZM25.25-14.22L25.25-11.57L20.99-11.57L20.99 0L17.56 0L17.56-11.57L13.37-11.57L13.37-14.22L25.25-14.22ZM34.56 0L31.53-5.29L30.13-3.75L30.13 0L26.70 0L26.70-14.22L30.13-14.22L30.13-7.95L31.32-9.76L34.38-14.22L38.62-14.22L33.82-7.93L38.62 0L34.56 0Z"></path></g></g><style>@media (prefers-color-scheme: light) { :root { filter: none; } }
@media (prefers-color-scheme: dark) { :root { filter: none; } }
</style></svg>